<svg width="292" height="53" viewBox="0 0 292 53" fill="none" xmlns="http://www.w3.org/2000/svg">
<path d="M18.5014 1.41992H27.1986L45.3723 50.9369H38.3756L33.4691 37.3547H11.8324L6.86386 50.9369H0L18.5014 1.41992ZM31.3789 31.5557L22.6817 7.42982L13.9226 31.5557H31.3789Z" fill="#0A0A5C"/>
<path d="M46.332 1.34375H67.5081C76.8519 1.34375 82.9363 7.56452 82.9363 16.8334C82.9363 26.1022 76.657 32.045 65.9405 32.045H52.8682V50.9374H46.332V1.34375ZM65.294 26.0351C72.2907 26.0351 76.2142 22.7762 76.2142 16.843C76.2142 10.9097 72.4855 7.65079 66.2151 7.65079H52.8771V26.0447H65.294V26.0351Z" fill="#0A0A5C"/>
<path d="M92.31 1.41992H101.007L119.181 50.9369H112.184L107.278 37.3547H85.641L80.6725 50.9369H73.8086L92.31 1.41992ZM105.187 31.5557L96.4903 7.42982L87.7312 31.5557H105.187Z" fill="#0A0A5C"/>
<path d="M121.461 1.41992H141.592C157.41 1.41992 165.584 11.676 165.584 26.0346C165.584 40.3932 156.365 50.9369 139.83 50.9369H121.461V1.41992ZM139.821 44.5723C152.043 44.5723 158.774 37.6422 158.774 25.9675C158.774 15.0692 153.283 7.78447 140.928 7.78447H127.988V44.5723H139.821Z" fill="#0A0A5C"/>
<path d="M166.637 26.1771C166.637 11.5309 177.158 0 192.064 0C206.97 0 217.358 11.5309 217.358 26.1771C217.358 40.8232 206.775 52.3541 192.064 52.3541C177.353 52.3541 166.637 40.8232 166.637 26.1771ZM192.064 45.702C203.303 45.702 210.565 37.2863 210.565 26.1771C210.565 15.0679 203.312 6.6521 192.064 6.6521C180.816 6.6521 173.439 15.0679 173.439 26.1771C173.439 37.2863 180.63 45.702 192.064 45.702Z" fill="#0A0A5C"/>
<path d="M218.598 1.41992H241.217C249.516 1.41992 255.406 7.5065 255.406 15.7785C255.406 24.4818 249.853 30.2808 239.853 30.2808H235.275L256.451 50.9369H247.107L225.143 28.4405V50.9369H218.607V1.41992H218.598ZM238.986 24.8269C245.061 24.8269 248.595 21.5679 248.595 16.0565C248.595 10.9667 245.265 7.70779 239.898 7.70779H225.125V24.8269H238.986Z" fill="#0A0A5C"/>
<path d="M257.875 1.41992H291.672V7.78447H264.42V21.7213H289.909V27.9421H264.42V44.5627H291.999V50.9273H257.875V1.41992Z" fill="#0A0A5C"/>
</svg>
